<svg xmlns="http://www.w3.org/2000/svg" width="50" height="38" viewBox="0 0 50 38">
  <defs>
    <style>
      .cls-1 {
        fill-rule: evenodd;
      }
    </style>
  </defs>
  <path id="project_eye.svg" class="cls-1" d="M1036,3564c-13.81,0-25,19-25,19s11.19,19,25,19,25-19,25-19-11.19-19-25-19h0Zm0,2c10.74,0,20.15,13.19,22.63,17-2.48,3.81-11.89,17-22.63,17s-20.15-13.2-22.64-17c2.49-3.81,11.87-17,22.64-17m0,6a11,11,0,1,0,11,11A10.994,10.994,0,0,0,1036,3572Zm0,2a9,9,0,1,0,9,9A9,9,0,0,0,1036,3574Z" transform="translate(-1011 -3564)"/>
</svg>
